<svg xmlns="http://www.w3.org/2000/svg" viewBox="0 0 80 80">
<g id="surface1">
<path style=" " d="M 40 7 C 38.859375 7 37.679688 7.539063 36.328125 8.390625 C 34.972656 9.238281 33.507813 10.449219 32.136719 11.953125 C 29.390625 14.957031 27 19.167969 27 24 L 27 39.136719 L 19.210938 48.085938 C 17.785156 49.722656 17 51.820313 17 53.992188 L 17 57 C 17 57.550781 17.449219 58 18 58 L 27.621094 58 C 28.074219 58.765625 28.730469 59.382813 29.570313 59.707031 C 29.242188 60.242188 29 60.832031 29 61.5 C 29 63.421875 30.578125 65 32.5 65 L 33.058594 65 C 33.652344 71.078125 39.445313 74.832031 39.445313 74.832031 L 40 75.203125 L 40.554688 74.832031 C 40.554688 74.832031 46.347656 71.078125 46.941406 65 L 47.5 65 C 49.421875 65 51 63.421875 51 61.5 C 51 60.832031 50.757813 60.242188 50.429688 59.707031 C 51.269531 59.382813 51.925781 58.765625 52.378906 58 L 62 58 C 62.550781 58 63 57.550781 63 57 L 63 53.992188 C 63 51.820313 62.214844 49.722656 60.789063 48.085938 L 53 39.136719 L 53 24 C 53 19.167969 50.609375 14.957031 47.863281 11.953125 C 46.492188 10.449219 45.027344 9.238281 43.671875 8.390625 C 42.320313 7.539063 41.140625 7 40 7 Z M 40 9 C 40.359375 9 41.429688 9.335938 42.609375 10.078125 C 43.785156 10.824219 45.132813 11.925781 46.386719 13.296875 C 48.890625 16.042969 51 19.832031 51 24 L 51 39.507813 C 51 39.589844 51.011719 39.671875 51.03125 39.753906 C 51.011719 39.835938 51 39.917969 51 40 C 51 40.542969 51.429688 40.984375 51.972656 41 L 59.28125 49.398438 C 60.390625 50.671875 61 52.304688 61 53.992188 L 61 56 L 53 56 C 53 55.964844 52.996094 55.933594 52.996094 55.902344 C 52.941406 55.390625 52.511719 55 52 55 C 51.457031 55 51.011719 55.433594 51 55.980469 C 51 55.984375 51 55.992188 51 56 C 51 57.117188 50.117188 58 49 58 L 47.5 58 C 47.433594 58 47.367188 58.007813 47.300781 58.023438 C 47.234375 58.039063 47.171875 58.058594 47.109375 58.082031 C 46.988281 58.136719 46.878906 58.214844 46.785156 58.3125 C 46.742188 58.359375 46.699219 58.414063 46.664063 58.46875 C 46.628906 58.527344 46.597656 58.585938 46.578125 58.652344 C 46.496094 58.871094 46.492188 59.113281 46.574219 59.335938 C 46.582031 59.367188 46.597656 59.398438 46.609375 59.429688 C 46.710938 59.640625 46.886719 59.8125 47.097656 59.910156 C 47.160156 59.9375 47.222656 59.960938 47.289063 59.972656 C 47.320313 59.980469 47.355469 59.988281 47.386719 59.992188 C 47.425781 59.996094 47.460938 60 47.5 60 C 48.339844 60 49 60.660156 49 61.5 C 49 62.339844 48.339844 63 47.5 63 L 32.5 63 C 31.660156 63 31 62.339844 31 61.5 C 31 60.660156 31.660156 60 32.5 60 C 32.601563 60 32.699219 59.980469 32.796875 59.953125 C 32.859375 59.929688 32.921875 59.902344 32.980469 59.871094 C 33.125 59.789063 33.246094 59.671875 33.335938 59.53125 C 33.351563 59.5 33.367188 59.472656 33.382813 59.441406 C 33.398438 59.410156 33.410156 59.382813 33.421875 59.347656 C 33.46875 59.222656 33.492188 59.089844 33.484375 58.957031 C 33.484375 58.921875 33.480469 58.890625 33.476563 58.859375 C 33.460938 58.757813 33.433594 58.660156 33.390625 58.570313 C 33.375 58.539063 33.359375 58.511719 33.34375 58.484375 C 33.324219 58.453125 33.304688 58.425781 33.285156 58.402344 C 33.265625 58.375 33.246094 58.347656 33.222656 58.324219 C 33.175781 58.273438 33.125 58.230469 33.074219 58.1875 C 33.046875 58.171875 33.015625 58.152344 32.988281 58.136719 C 32.902344 58.085938 32.808594 58.046875 32.710938 58.027344 C 32.679688 58.019531 32.644531 58.011719 32.613281 58.007813 C 32.574219 58.003906 32.539063 58 32.5 58 L 31 58 C 29.882813 58 29.003906 57.121094 29 56.003906 C 29 56.003906 29 56.003906 29 56 C 29 55.964844 28.996094 55.933594 28.996094 55.902344 C 28.941406 55.390625 28.511719 55 28 55 C 27.457031 55 27.011719 55.433594 27 55.980469 C 27 55.984375 27 55.992188 27 56 L 19 56 L 19 53.992188 C 19 52.304688 19.609375 50.671875 20.71875 49.398438 L 28.03125 41 C 28.570313 40.980469 29 40.539063 29 40 C 29 39.917969 28.988281 39.835938 28.96875 39.753906 C 28.988281 39.675781 29 39.59375 29 39.511719 L 29 24 C 29 19.832031 31.109375 16.042969 33.613281 13.296875 C 34.867188 11.925781 36.214844 10.824219 37.390625 10.078125 C 38.570313 9.335938 39.640625 9 40 9 Z M 32 20 C 31.449219 20 31 20.449219 31 21 C 31 21.550781 31.449219 22 32 22 C 32.550781 22 33 21.550781 33 21 C 33 20.449219 32.550781 20 32 20 Z M 36 20 C 35.449219 20 35 20.449219 35 21 C 35 21.550781 35.449219 22 36 22 C 36.550781 22 37 21.550781 37 21 C 37 20.449219 36.550781 20 36 20 Z M 40 20 C 39.449219 20 39 20.449219 39 21 C 39 21.550781 39.449219 22 40 22 C 40.550781 22 41 21.550781 41 21 C 41 20.449219 40.550781 20 40 20 Z M 44 20 C 43.449219 20 43 20.449219 43 21 C 43 21.550781 43.449219 22 44 22 C 44.550781 22 45 21.550781 45 21 C 45 20.449219 44.550781 20 44 20 Z M 48 20 C 47.449219 20 47 20.449219 47 21 C 47 21.550781 47.449219 22 48 22 C 48.550781 22 49 21.550781 49 21 C 49 20.449219 48.550781 20 48 20 Z M 40 28 C 36.144531 28 33 31.144531 33 35 C 33 38.855469 36.144531 42 40 42 C 43.855469 42 47 38.855469 47 35 C 47 31.144531 43.855469 28 40 28 Z M 40 30 C 42.773438 30 45 32.226563 45 35 C 45 37.773438 42.773438 40 40 40 C 37.226563 40 35 37.773438 35 35 C 35 32.226563 37.226563 30 40 30 Z M 28 43 C 27.449219 43 27 43.449219 27 44 C 27 44.550781 27.449219 45 28 45 C 28.550781 45 29 44.550781 29 44 C 29 43.449219 28.550781 43 28 43 Z M 52 43 C 51.449219 43 51 43.449219 51 44 C 51 44.550781 51.449219 45 52 45 C 52.550781 45 53 44.550781 53 44 C 53 43.449219 52.550781 43 52 43 Z M 28 47 C 27.449219 47 27 47.449219 27 48 C 27 48.550781 27.449219 49 28 49 C 28.550781 49 29 48.550781 29 48 C 29 47.449219 28.550781 47 28 47 Z M 52 47 C 51.449219 47 51 47.449219 51 48 C 51 48.550781 51.449219 49 52 49 C 52.550781 49 53 48.550781 53 48 C 53 47.449219 52.550781 47 52 47 Z M 28 51 C 27.449219 51 27 51.449219 27 52 C 27 52.550781 27.449219 53 28 53 C 28.550781 53 29 52.550781 29 52 C 29 51.449219 28.550781 51 28 51 Z M 52 51 C 51.449219 51 51 51.449219 51 52 C 51 52.550781 51.449219 53 52 53 C 52.550781 53 53 52.550781 53 52 C 53 51.449219 52.550781 51 52 51 Z M 36 58 C 35.449219 58 35 58.449219 35 59 C 35 59.550781 35.449219 60 36 60 C 36.550781 60 37 59.550781 37 59 C 37 58.449219 36.550781 58 36 58 Z M 40 58 C 39.449219 58 39 58.449219 39 59 C 39 59.550781 39.449219 60 40 60 C 40.550781 60 41 59.550781 41 59 C 41 58.449219 40.550781 58 40 58 Z M 44 58 C 43.449219 58 43 58.449219 43 59 C 43 59.550781 43.449219 60 44 60 C 44.550781 60 45 59.550781 45 59 C 45 58.449219 44.550781 58 44 58 Z M 35.0625 65 L 38.136719 65 C 38.574219 66.945313 40 69.332031 40 69.332031 C 40 69.332031 41.425781 66.945313 41.863281 65 L 44.9375 65 C 44.425781 69.238281 40.835938 72.03125 40 72.652344 C 39.164063 72.03125 35.574219 69.238281 35.0625 65 Z "></path>
</g>
</svg>